<svg height="512" viewBox="0 0 512 512" width="512" xmlns="http://www.w3.org/2000/svg"><g id="Anxious_Face_With_Sweat" data-name="Anxious Face With Sweat"><g id="Flat"><path d="m256 512a256 256 0 0 1 -181.02-437.02 256 256 0 0 1 362.04 362.04 254.331 254.331 0 0 1 -181.02 74.98z" fill="#ffcc80"/><circle cx="328" cy="216" fill="#616161" r="24"/><path d="m437.02 74.98q-6.261-6.26-12.878-12.02a256.574 256.574 0 0 1 -59.122 270.06 256 256 0 0 1 -349.162 12.02 256.057 256.057 0 1 0 421.162-270.06z" fill="#ffb74d"/><circle cx="56" cy="264" fill="#ffe4c0" r="24"/><circle cx="184" cy="216" fill="#616161" r="24"/><circle cx="176" cy="208" fill="#fff" r="8"/><circle cx="320" cy="208" fill="#fff" r="8"/><path d="m392 184c-37.072 0-71.643-2.8-87.264-36.647a8 8 0 0 1 14.528-6.706c10.672 23.123 32.868 27.353 72.736 27.353a8 8 0 0 1 0 16z" fill="#616161"/><path d="m120 184a8 8 0 0 1 0-16c39.868 0 62.064-4.23 72.736-27.353a8 8 0 1 1 14.528 6.706c-15.621 33.847-50.192 36.647-87.264 36.647z" fill="#616161"/><path d="m440 355a72.081 72.081 0 0 1 -72-72c0-16.364 11.27-40.392 33.5-71.414 16.066-22.424 31.871-40.171 32.536-40.915l5.967-6.68 5.967 6.68c.665.744 16.471 18.491 32.536 40.915 22.224 31.022 33.494 55.05 33.494 71.414a72.081 72.081 0 0 1 -72 72z" fill="#2196f3"/><path d="m352 392h-192a24.028 24.028 0 0 1 -24-24 72.081 72.081 0 0 1 72-72h96a72.081 72.081 0 0 1 72 72 24.028 24.028 0 0 1 -24 24z" fill="#e27484"/><path d="m199.915 198.057c.051.641.085 1.288.085 1.943a23.983 23.983 0 0 1 -39.915 17.943 24 24 0 1 0 39.83-19.886z" fill="#424242"/><path d="m343.915 198.057c.051.641.085 1.288.085 1.943a23.983 23.983 0 0 1 -39.915 17.943 24 24 0 1 0 39.83-19.886z" fill="#424242"/><path d="m160.455 392a72.1 72.1 0 0 1 71.545-64h96a71.619 71.619 0 0 1 43.339 14.549 72.109 72.109 0 0 0 -67.339-46.549h-96a72.081 72.081 0 0 0 -72 72 24.028 24.028 0 0 0 24 24z" fill="#d8667c"/><path d="m490.93 230.008a116.048 116.048 0 0 1 -110.93 81.992q-2.993 0-5.948-.15a71.988 71.988 0 0 0 137.948-28.85c0-12.964-7.08-30.742-21.07-52.992z" fill="#1e88e5"/><g fill="#90caf9"><circle cx="436" cy="236" r="20"/><circle cx="420" cy="276" r="12"/></g></g></g></svg>