<svg height="512" viewBox="0 0 512 512" width="512" xmlns="http://www.w3.org/2000/svg"><g id="Flushed_Face" data-name="Flushed Face"><g id="Filled"><circle cx="256" cy="256" fill="#ffcc80" r="248"/><path d="m429.39 78.712a256.8 256.8 0 0 1 10.61 73.288 256 256 0 0 1 -256 256 254.044 254.044 0 0 1 -155.139-52.331c38.378 87.331 125.628 148.331 227.139 148.331 136.967 0 248-111.033 248-248a247.232 247.232 0 0 0 -74.61-177.288z" fill="#ffb74d"/><circle cx="136" cy="192" fill="#fff" r="72"/><circle cx="376" cy="192" fill="#fff" r="72"/><circle cx="376" cy="192" fill="#616161" r="16"/><circle cx="136" cy="192" fill="#616161" r="16"/><path d="m183.776 138.154c.144 1.931.224 3.879.224 5.846a79.94 79.94 0 0 1 -116.106 71.351 72 72 0 1 0 115.882-77.2z" fill="#f5f5f5"/><path d="m423.776 138.154c.144 1.931.224 3.879.224 5.846a79.94 79.94 0 0 1 -116.106 71.351 72 72 0 1 0 115.882-77.2z" fill="#f5f5f5"/><g fill="#ffe4c0"><circle cx="56" cy="264" r="24"/><circle cx="456" cy="264" r="24"/></g></g><g id="Outline" fill="#231f20"><path d="m506.8 204.41a254.636 254.636 0 0 0 -38.52-91.54 256.734 256.734 0 0 0 -112.631-92.75 254.042 254.042 0 0 0 -48.059-14.92 257.909 257.909 0 0 0 -128.2 6.46 255.074 255.074 0 0 0 -67.35 32.62 8 8 0 1 0 9.01 13.22 240.01 240.01 0 0 1 304.65 368.2 240 240 0 0 1 -350.81-327.18 8 8 0 1 0 -12.07-10.5 255.9 255.9 0 1 0 443.98 116.39z"/><path d="m91.34 78.55a7.96 7.96 0 0 0 5.23-1.95l.08-.07a8 8 0 0 0 -10.62-11.97l-.02.02a8.013 8.013 0 0 0 -.65 11.279 8.011 8.011 0 0 0 5.98 2.691z"/><path d="m376 168a24 24 0 1 0 24 24 24.028 24.028 0 0 0 -24-24zm0 32a8 8 0 1 1 8-8 8.009 8.009 0 0 1 -8 8z"/><path d="m136 216a24 24 0 1 0 -24-24 24.027 24.027 0 0 0 24 24zm0-32a8 8 0 1 1 -8 8 8.009 8.009 0 0 1 8-8z"/><path d="m136 272a80 80 0 1 0 -80-80 80.091 80.091 0 0 0 80 80zm0-144a64 64 0 1 1 -64 64 64.072 64.072 0 0 1 64-64z"/><path d="m376 112a80 80 0 1 0 80 80 80.091 80.091 0 0 0 -80-80zm0 144a64 64 0 1 1 64-64 64.072 64.072 0 0 1 -64 64z"/><path d="m272 352a8 8 0 0 0 0-16h-32a8 8 0 0 0 0 16z"/><path d="m354.343 290.343-32 32a8 8 0 0 0 11.314 11.314l32-32a8 8 0 0 0 -11.314-11.314z"/><path d="m376 336a7.974 7.974 0 0 0 5.657-2.343l32-32a8 8 0 0 0 -11.314-11.314l-32 32a8 8 0 0 0 5.657 13.657z"/><path d="m424 336a7.974 7.974 0 0 0 5.657-2.343l32-32a8 8 0 0 0 -11.314-11.314l-32 32a8 8 0 0 0 5.657 13.657z"/><path d="m98.343 290.343-32 32a8 8 0 0 0 11.314 11.314l32-32a8 8 0 0 0 -11.314-11.314z"/><path d="m120 336a7.976 7.976 0 0 0 5.657-2.343l32-32a8 8 0 1 0 -11.314-11.314l-32 32a8 8 0 0 0 5.657 13.657z"/><path d="m168 336a7.976 7.976 0 0 0 5.657-2.343l32-32a8 8 0 1 0 -11.314-11.314l-32 32a8 8 0 0 0 5.657 13.657z"/></g></g></svg>