<svg height="512pt" viewBox="-48 0 512 512.00016" width="512pt" xmlns="http://www.w3.org/2000/svg"><path d="m416.542969 208.269531c0 115.027344-93.246094 208.273438-208.273438 208.273438-115.023437 0-208.269531-93.246094-208.269531-208.273438 0-115.023437 93.246094-208.269531 208.269531-208.269531 115.027344 0 208.273438 93.246094 208.273438 208.269531zm0 0" fill="#f0c419"/><path d="m131.246094 190.914062c-4.207032 0-8.402344-.449218-12.515625-1.34375-31.023438-6.761718-47.5625-36.648437-48.257813-37.90625-2.292968-4.210937-.738281-9.480468 3.472656-11.773437 4.210938-2.296875 9.480469-.742187 11.777344 3.46875.222656.410156 13.683594 24.300781 36.808594 29.28125 14.191406 3.027344 29.601562-1.597656 45.8125-13.789063 3.835938-2.878906 9.273438-2.101562 12.148438 1.734376 2.875 3.835937 2.097656 9.273437-1.734376 12.148437-13.421874 11.097656-30.113281 17.484375-47.511718 18.179687zm0 0" fill="#e57e25"/><path d="m285.296875 190.914062c-17.410156-.703124-34.105469-7.109374-47.519531-18.222656-2.480469-1.859375-3.78125-4.902344-3.410156-7.980468.371093-3.078126 2.355468-5.722657 5.207031-6.941407 2.851562-1.21875 6.136719-.824219 8.617187 1.039063 16.21875 12.148437 31.613282 16.808594 45.808594 13.789062 23.214844-5 36.683594-29.039062 36.820312-29.28125 2.324219-4.144531 7.550782-5.644531 11.722657-3.371094 4.171875 2.273438 5.738281 7.476563 3.515625 11.675782-.691406 1.257812-17.234375 31.144531-48.257813 37.90625-4.105469.90625-8.296875 1.371094-12.503906 1.386718zm0 0" fill="#e57e25"/><path d="m208.269531 512c-13.839843.035156-27.128906-5.40625-36.976562-15.132812-6.808594-6.835938-11.566407-15.445313-13.734375-24.847657-22.800782-3.917969-38.496094-25.066406-35.640625-48.027343 2.851562-22.957032 23.246093-39.621094 46.3125-37.839844l13.710937-49.96875c1.269532-4.621094 6.046875-7.339844 10.671875-6.070313 4.621094 1.269531 7.339844 6.046875 6.070313 10.671875l-15.796875 57.535156c-.605469 2.226563-2.078125 4.125-4.089844 5.261719-2.007813 1.140625-4.390625 1.433594-6.617187.8125-9.113282-2.566406-18.898438-.0625-25.660157 6.558594-4.898437 4.855469-7.65625 11.464844-7.65625 18.363281 0 6.898438 2.757813 13.507813 7.65625 18.363282 4.898438 4.902343 11.550781 7.644531 18.484375 7.628906 4.472656-.023438 8.230469 3.359375 8.675782 7.808594.714843 8.089843 4.21875 15.683593 9.921874 21.46875 13.753907 13.492187 35.785157 13.46875 49.515626-.050782 5.671874-5.78125 9.160156-13.351562 9.867187-21.417968.445313-4.433594 4.175781-7.808594 8.632813-7.808594 6.929687.015625 13.585937-2.726563 18.484374-7.628906 4.898438-4.855469 7.65625-11.464844 7.65625-18.363282 0-6.898437-2.757812-13.507812-7.65625-18.363281-6.757812-6.632813-16.550781-9.136719-25.660156-6.558594-4.585937 1.28125-9.351562-1.371093-10.675781-5.945312l-16.660156-57.535157c-.90625-2.992187-.132813-6.238281 2.023437-8.503906 2.15625-2.261718 5.363282-3.191406 8.394532-2.429687s5.421874 3.09375 6.253906 6.109375l14.414062 50.027344c12.621094-.988282 25.050782 3.5625 34.050782 12.46875 11.433593 11.460937 15.535156 28.332031 10.640624 43.761718-4.894531 15.429688-17.96875 26.851563-33.914062 29.628906-2.15625 9.382813-6.894531 17.972657-13.6875 24.792969-9.84375 9.761719-23.148438 15.234375-37.011719 15.230469zm0 0" fill="#7f8c8d"/><path d="m311.78125 294.453125c-1.480469 9.816406-7.546875 18.34375-16.34375 22.953125-8.792969 4.609375-19.257812 4.753906-28.171875.390625-18.394531-8.808594-38.605469-13.167969-58.996094-12.722656-20.394531-.445313-40.609375 3.910156-59.007812 12.722656-8.917969 4.363281-19.382813 4.21875-28.175781-.390625-8.792969-4.609375-14.863282-13.136719-16.34375-22.953125-2.480469-12.574219 2.261718-25.480469 12.296874-33.453125 15.65625-12.117188 44.265626-26.695312 91.230469-26.695312 46.96875 0 75.578125 14.578124 91.222657 26.652343 10.035156 7.972657 14.78125 20.882813 12.296874 33.460938zm0 0" fill="#802f34"/><path d="m121.492188 121.492188c-4.308594 0-7.964844-3.160157-8.589844-7.421876-.625-4.261718 1.972656-8.335937 6.097656-9.570312.367188-.113281 35.996094-11.125 37.210938-35.511719.15625-3.097656 1.953124-5.882812 4.714843-7.296875 2.761719-1.414062 6.070313-1.25 8.679688.433594 2.605469 1.683594 4.117187 4.632812 3.960937 7.734375-1.828125 36.664063-47.640625 50.695313-49.585937 51.277344-.808594.234375-1.644531.351562-2.488281.355469zm0 0" fill="#2c2f38"/><path d="m295.050781 121.492188c-.835937-.003907-1.667969-.125-2.472656-.355469-1.945313-.582031-47.730469-14.613281-49.585937-51.277344-.238282-4.792969 3.449218-8.875 8.242187-9.113281 4.792969-.238282 8.875 3.449218 9.113281 8.242187 1.214844 24.386719 36.847656 35.398438 37.210938 35.511719 4.128906 1.234375 6.726562 5.316406 6.097656 9.582031-.628906 4.261719-4.292969 7.417969-8.605469 7.410157zm0 0" fill="#2c2f38"/><g fill="#7f8c8d"><path d="m208.269531 512c-17.5625.003906-33.945312-8.851562-43.566406-23.546875s-11.1875-33.25-4.160156-49.347656c1.933593-4.367188 7.03125-6.351563 11.40625-4.441407 4.375 1.910157 6.386719 6.996094 4.5 11.382813-6.339844 14.546875-2.007813 31.539063 10.523437 41.277344 12.53125 9.734375 30.066406 9.734375 42.597656 0 12.527344-9.738281 16.863282-26.730469 10.523438-41.277344-1.886719-4.386719.125-9.472656 4.5-11.382813 4.375-1.910156 9.472656.074219 11.40625 4.441407 7.027344 16.097656 5.460938 34.652343-4.160156 49.347656s-26.003906 23.550781-43.570313 23.546875zm0 0"/><path d="m190.914062 415.273438c-2.488281.003906-4.859374-1.066407-6.507812-2.929688-4.941406-5.605469-12.050781-8.816406-19.523438-8.816406-4.792968 0-8.679687-3.886719-8.679687-8.679688 0-4.792968 3.886719-8.679687 8.679687-8.679687 12.453126 0 24.304688 5.351562 32.539063 14.691406 2.253906 2.558594 2.800781 6.203125 1.398437 9.308594-1.402343 3.109375-4.496093 5.105469-7.90625 5.105469zm0 0"/><path d="m225.628906 415.273438c-3.410156 0-6.503906-1.996094-7.90625-5.105469-1.40625-3.105469-.859375-6.75 1.394532-9.308594 8.238281-9.339844 20.089843-14.691406 32.542968-14.691406 4.792969 0 8.679688 3.886719 8.679688 8.679687 0 4.792969-3.886719 8.679688-8.679688 8.679688-7.472656 0-14.582031 3.210937-19.523437 8.816406-1.648438 1.863281-4.019531 2.933594-6.507813 2.929688zm0 0"/></g><path d="m294.878906 257.648438c-.03125 1.019531-.148437 2.035156-.347656 3.039062-1.496094 8-6.632812 14.851562-13.898438 18.527344-7.261718 3.675781-15.824218 3.753906-23.15625.214844-15.417968-7.089844-32.242187-10.59375-49.207031-10.238282-16.964843-.355468-33.785156 3.148438-49.203125 10.238282-7.332031 3.539062-15.894531 3.460937-23.15625-.214844-7.265625-3.675782-12.402344-10.527344-13.898437-18.527344-.199219-1.003906-.316407-2.019531-.347657-3.039062 25.796876-16.464844 56.027344-24.613282 86.605469-23.34375 30.578125-1.269532 60.808594 6.878906 86.609375 23.34375zm0 0" fill="#fff"/></svg>